<?xml version="1.0" standalone="no"?>
<!DOCTYPE svg PUBLIC "-//W3C//DTD SVG 20010904//EN"
 "http://www.w3.org/TR/2001/REC-SVG-20010904/DTD/svg10.dtd">
<svg version="1.0" xmlns="http://www.w3.org/2000/svg"
 width="346.000000pt" height="346.000000pt" viewBox="0 0 346.000000 346.000000"
 preserveAspectRatio="xMidYMid meet">
<metadata>
Created by potrace 1.14, written by Peter Selinger 2001-2017
</metadata>
<g transform="translate(0.000000,346.000000) scale(0.100000,-0.100000)"
fill="#000000" stroke="none">
<path d="M1712 3248 c-79 -9 -120 -22 -201 -64 -35 -19 -77 -34 -92 -34 -38 0
-79 -17 -109 -44 -14 -13 -43 -29 -65 -36 -90 -28 -216 -125 -251 -192 -9 -17
-46 -65 -81 -107 -77 -89 -100 -136 -109 -217 -3 -32 -14 -86 -24 -119 -14
-45 -19 -96 -21 -205 -2 -175 13 -384 31 -425 14 -34 19 -271 6 -320 -8 -30
-8 -30 -27 24 -21 61 -63 121 -85 121 -26 0 -14 -39 20 -65 19 -15 39 -41 45
-58 20 -68 42 -225 39 -287 -3 -59 -5 -65 -28 -71 -21 -6 -18 -7 15 -8 l41 -1
32 -123 c58 -218 113 -305 355 -550 136 -139 158 -157 212 -177 186 -68 419
-67 536 2 55 32 307 233 372 296 75 73 135 170 187 299 l47 118 35 -3 c24 -2
42 3 59 18 l24 20 -31 -17 c-46 -25 -68 -12 -59 34 12 63 84 295 99 318 8 12
28 28 45 35 17 7 31 17 31 22 0 5 5 6 10 3 6 -4 9 3 7 17 -2 13 -11 24 -19 26
-14 3 -72 -54 -111 -108 -18 -25 -18 -23 -12 76 4 77 13 126 39 205 18 57 36
133 40 169 4 36 18 94 32 129 16 38 27 89 29 130 2 36 6 82 10 101 4 21 1 47
-6 65 -7 17 -13 66 -14 110 -1 93 -28 156 -90 215 -20 19 -50 55 -67 78 -26
38 -58 63 -197 154 -17 12 -46 18 -82 18 l-56 0 -5 68 c-6 77 -32 136 -79 178
-18 16 -50 48 -72 71 -78 83 -245 129 -405 111z m-186 -817 c103 -20 400 -39
599 -38 149 0 255 -28 320 -85 84 -74 133 -208 135 -373 2 -144 1 -167 -11
-159 -8 5 -9 2 -1 -12 7 -13 7 -26 -2 -44 -7 -14 -12 -44 -12 -68 1 -42 1 -43
-14 -20 -33 52 -109 119 -165 145 -81 37 -214 43 -287 11 -26 -11 -45 -24 -42
-29 3 -5 -2 -6 -10 -3 -33 13 -139 -118 -170 -209 -5 -16 -9 -15 -45 9 -22 14
-45 23 -50 19 -6 -3 -11 -1 -11 4 0 19 -88 12 -130 -9 l-40 -20 -6 27 c-13 59
-27 99 -47 133 -30 49 -97 120 -113 120 -8 0 -14 4 -14 9 0 13 -57 34 -75 27
-8 -3 -15 -1 -15 5 0 7 -10 9 -26 5 -18 -5 -24 -3 -18 5 12 20 -134 5 -190
-20 -67 -29 -133 -85 -169 -143 -17 -26 -35 -48 -40 -48 -7 0 -6 5 1 12 15 15
16 31 0 22 -7 -4 -8 -3 -4 4 4 6 2 21 -4 32 -8 15 -8 20 1 18 6 -2 14 3 17 11
3 8 0 11 -7 7 -6 -4 -11 -2 -11 3 0 6 4 11 9 11 4 0 8 19 7 43 -3 57 77 364
113 435 28 56 94 127 142 153 82 44 194 47 385 10z m-158 -606 c82 -42 114
-75 155 -165 54 -119 31 -253 -60 -352 -53 -56 -103 -82 -202 -104 -59 -13
-75 -14 -81 -4 -4 7 -17 10 -29 7 -12 -3 -21 -1 -21 5 0 6 -7 8 -15 4 -8 -3
-15 -2 -15 3 0 5 -13 14 -28 20 -42 18 -120 99 -145 150 -30 63 -31 216 -3
279 10 23 23 42 27 42 4 0 11 9 14 20 9 28 100 95 155 114 25 8 75 15 111 16
56 0 77 -5 137 -35z m993 -71 c62 -31 123 -95 157 -164 38 -77 38 -189 0 -271
-25 -55 -120 -164 -132 -152 -3 4 -6 1 -6 -6 0 -7 -4 -9 -10 -6 -5 3 -10 2
-10 -4 0 -6 -7 -7 -17 -4 -11 5 -14 3 -8 -6 6 -10 2 -11 -15 -6 -15 5 -20 4
-16 -4 5 -7 -6 -9 -36 -6 -24 2 -66 6 -95 9 -70 7 -141 45 -196 106 -57 63
-81 130 -81 230 -1 63 4 84 27 128 15 28 31 52 36 52 6 0 13 9 16 21 9 28 102
86 167 104 69 19 157 11 219 -21z m-571 -211 c51 -35 60 -50 74 -125 27 -139
95 -231 214 -286 49 -23 70 -27 147 -27 76 0 99 4 146 26 53 25 137 98 167
144 7 11 10 14 7 7 -4 -7 -9 -43 -11 -81 -2 -37 -11 -92 -20 -122 -8 -30 -15
-60 -16 -66 -1 -7 -4 -13 -8 -13 -3 0 -6 -8 -7 -19 -1 -16 -10 -38 -56 -141
-21 -47 -213 -265 -285 -324 -24 -20 -41 -36 -38 -36 3 0 -13 -17 -36 -38 -23
-20 -55 -52 -71 -69 -16 -18 -59 -47 -96 -65 -64 -30 -71 -32 -191 -31 -69 0
-152 6 -185 13 -83 17 -176 63 -200 99 -10 16 -23 27 -27 25 -4 -3 -8 0 -8 7
0 11 -52 81 -87 117 -29 30 -144 182 -192 254 -60 91 -121 213 -121 245 0 13
-4 23 -9 23 -4 0 -7 12 -5 27 1 15 -1 34 -6 42 -10 20 -19 270 -10 295 5 14
14 3 40 -48 63 -123 188 -198 330 -199 158 -1 287 101 344 271 20 58 28 70 62
89 48 28 119 30 154 6z m-920 -77 c0 -3 -4 -8 -10 -11 -5 -3 -10 -1 -10 4 0 6
5 11 10 11 6 0 10 -2 10 -4z"/>
<path d="M1205 2031 c-73 -19 -175 -88 -175 -117 0 -24 17 -23 80 7 71 33 178
52 230 40 19 -4 61 -16 94 -27 57 -18 58 -18 72 1 25 33 17 52 -33 75 -37 18
-70 24 -143 26 -52 2 -108 0 -125 -5z"/>
<path d="M2120 1994 c-104 -20 -144 -51 -115 -91 12 -17 16 -17 84 1 131 34
241 12 329 -66 65 -57 83 -10 22 56 -60 65 -134 98 -223 102 -40 1 -83 0 -97
-2z"/>
<path d="M1149 1732 c-64 -33 -119 -106 -118 -156 l0 -31 19 42 c29 65 90 120
156 139 132 38 251 -25 304 -161 17 -45 19 -47 19 -20 1 39 -50 127 -92 159
-82 63 -200 74 -288 28z"/>
<path d="M1235 1686 c-50 -22 -77 -60 -83 -114 -7 -73 3 -83 97 -102 66 -13
85 -14 103 -3 33 18 48 16 42 -4 -4 -12 4 -8 20 10 37 40 37 122 0 167 -49 58
-114 75 -179 46z m34 -50 c16 -19 -4 -59 -26 -54 -26 5 -39 34 -24 52 17 20
35 20 50 2z"/>
<path d="M2064 1676 c-69 -30 -155 -132 -154 -183 1 -10 12 5 26 34 28 58 76
101 142 126 128 50 266 -18 313 -154 16 -50 29 -55 29 -12 0 64 -75 155 -155
189 -43 18 -160 18 -201 0z"/>
<path d="M2095 1626 c-76 -33 -115 -134 -78 -198 21 -36 22 -36 183 -27 l75 5
13 39 c7 22 11 54 7 72 -6 33 -45 87 -74 102 -32 17 -96 21 -126 7z m29 -61
c9 -24 -4 -45 -29 -45 -29 0 -38 13 -30 40 8 24 50 27 59 5z"/>
<path d="M1540 1124 c0 -39 30 -82 70 -101 49 -23 155 -21 189 5 33 24 53 65
49 100 -3 27 -3 27 -22 -11 -15 -31 -27 -39 -70 -52 -79 -23 -164 2 -188 56
-16 36 -28 37 -28 3z"/>
<path d="M1245 980 c-3 -6 0 -13 9 -16 8 -3 18 -20 22 -37 8 -39 64 -121 115
-169 22 -21 42 -38 44 -38 2 0 24 -14 49 -30 46 -32 117 -60 145 -59 10 0 7 4
-8 10 -13 5 -21 12 -18 16 4 3 20 0 37 -7 24 -10 28 -15 18 -22 -8 -6 15 -8
63 -5 80 4 149 29 241 88 50 33 138 141 138 171 0 10 7 18 15 18 8 0 15 7 15
15 0 16 -25 21 -35 6 -11 -19 -93 -22 -315 -12 -295 13 -435 34 -522 78 -4 2
-9 -1 -13 -7z m327 -100 c40 -5 116 -11 168 -13 85 -4 140 -17 140 -34 0 -3
-69 -3 -152 -1 -153 6 -304 31 -292 49 7 12 45 11 136 -1z m158 -234 c0 -2 -9
-6 -20 -9 -11 -3 -20 -1 -20 4 0 5 9 9 20 9 11 0 20 -2 20 -4z"/>
<path d="M1445 632 c33 -36 137 -92 169 -91 15 0 10 4 -15 14 -54 20 -100 44
-144 78 l-40 31 30 -32z"/>
<path d="M1873 593 c-44 -24 -105 -47 -135 -52 -52 -8 -52 -9 -12 -10 56 -1
122 20 180 59 60 40 58 39 53 43 -2 1 -41 -17 -86 -40z"/>
</g>
</svg>
