<?xml version="1.0" standalone="no"?>
<!DOCTYPE svg PUBLIC "-//W3C//DTD SVG 20010904//EN"
 "http://www.w3.org/TR/2001/REC-SVG-20010904/DTD/svg10.dtd">
<svg version="1.0" xmlns="http://www.w3.org/2000/svg"
 width="500.000000pt" height="500.000000pt" viewBox="0 0 500.000000 500.000000"
 preserveAspectRatio="xMidYMid meet">
<metadata>
Created by potrace 1.14, written by Peter Selinger 2001-2017
</metadata>
<g transform="translate(0.000000,500.000000) scale(0.100000,-0.100000)"
fill="#000000" stroke="none">
<path d="M0 2500 l0 -2500 2500 0 2500 0 0 2500 0 2500 -2500 0 -2500 0 0
-2500z m2975 1309 c58 -16 129 -74 191 -157 64 -84 79 -117 89 -187 15 -103
36 -188 59 -238 22 -47 71 -245 63 -254 -2 -2 -18 2 -36 8 -44 16 -143 5 -217
-22 -81 -30 -130 -80 -139 -142 -7 -43 -3 -56 35 -132 23 -47 43 -85 44 -85 1
0 0 30 -2 68 -2 46 3 84 15 122 17 53 20 56 88 89 79 38 156 50 195 29 27 -15
27 -8 14 -169 -4 -54 -1 -94 10 -138 26 -100 29 -186 12 -289 l-15 -93 66 -62
c36 -34 83 -74 103 -90 47 -34 112 -156 134 -249 8 -37 18 -104 22 -150 3 -46
14 -130 24 -188 33 -190 35 -241 12 -291 -65 -138 -188 -315 -285 -407 l-34
-33 -5 93 c-2 51 -1 111 3 133 17 94 -39 104 -196 35 -83 -37 -187 -70 -218
-70 -61 0 -347 64 -492 110 -193 61 -227 70 -259 70 -35 0 -62 14 -113 61 -24
22 -49 39 -56 39 -8 0 -22 9 -31 19 -10 11 -46 36 -81 56 -85 50 -140 97 -208
177 -54 64 -67 88 -48 88 13 0 110 101 124 129 7 14 17 26 22 28 6 2 71 -55
145 -127 74 -71 141 -130 148 -130 6 0 12 -5 12 -11 0 -5 4 -8 9 -5 5 3 11 0
14 -8 3 -8 38 -35 77 -60 62 -40 79 -47 143 -52 50 -4 83 -13 108 -29 19 -13
83 -39 141 -58 58 -20 146 -57 194 -83 l89 -46 90 6 c87 6 91 7 128 44 25 25
48 65 68 117 41 107 104 306 119 378 11 53 16 61 66 97 65 49 87 88 88 160 1
68 -18 76 -70 31 -40 -36 -66 -39 -94 -11 -11 11 -24 20 -29 20 -15 0 -165 72
-189 91 -19 14 -35 16 -95 12 -40 -3 -91 0 -114 5 -33 7 -47 6 -62 -5 -12 -8
-44 -21 -72 -29 -28 -8 -80 -32 -117 -52 -75 -41 -141 -48 -186 -19 -75 49
-136 170 -136 268 0 55 -7 79 -24 79 -7 0 -33 13 -58 29 -53 34 -104 102 -113
154 -6 33 -5 37 18 42 14 4 33 15 42 25 14 15 22 17 46 8 23 -8 35 -7 54 6 14
9 25 23 25 30 0 19 67 76 128 109 89 49 216 70 276 47 26 -9 26 -9 26 38 0 27
5 53 11 59 20 20 1 43 -57 70 -54 25 -60 25 -232 21 -157 -4 -183 -7 -229 -27
-41 -18 -52 -28 -55 -49 -2 -23 -8 -27 -33 -27 -29 0 -30 2 -38 60 -5 33 -19
96 -32 140 -15 51 -28 129 -34 215 -10 127 -9 139 11 205 22 69 23 71 78 98
30 15 78 42 107 60 134 83 171 102 261 129 54 16 144 38 201 48 57 11 106 22
109 25 9 9 105 5 147 -6z m48 -2286 c-7 -2 -19 -2 -25 0 -7 3 -2 5 12 5 14 0
19 -2 13 -5z"/>
<path d="M2290 2336 c0 -2 7 -7 16 -10 8 -3 12 -2 9 4 -6 10 -25 14 -25 6z"/>
</g>
</svg>
