<?xml version="1.0" standalone="no"?>
<!DOCTYPE svg PUBLIC "-//W3C//DTD SVG 20010904//EN"
 "http://www.w3.org/TR/2001/REC-SVG-20010904/DTD/svg10.dtd">
<svg version="1.0" xmlns="http://www.w3.org/2000/svg"
 width="400.000000pt" height="400.000000pt" viewBox="0 0 400.000000 400.000000"
 preserveAspectRatio="xMidYMid meet">
<metadata>
Created by potrace 1.14, written by Peter Selinger 2001-2017
</metadata>
<g transform="translate(0.000000,400.000000) scale(0.100000,-0.100000)"
fill="#000000" stroke="none">
<path d="M2065 2770 c-3 -6 -3 -15 1 -22 5 -8 2 -9 -10 -5 -14 5 -17 3 -12 -8
3 -8 1 -15 -4 -15 -10 0 -14 15 -11 34 1 5 -4 4 -13 -3 -11 -9 -16 -9 -22 0
-5 8 -3 9 6 4 9 -5 11 -4 6 3 -9 15 -18 15 -40 -1 -15 -11 -17 -17 -7 -35 8
-14 8 -22 1 -22 -5 0 -10 5 -10 10 0 6 -9 10 -20 10 -11 0 -21 -4 -21 -10 -2
-14 -5 -22 -13 -42 -4 -9 -5 -22 -1 -29 4 -6 2 -15 -5 -19 -9 -6 -9 -13 0 -31
9 -20 9 -21 -2 -7 -7 9 -19 25 -26 35 -11 15 -12 11 -7 -32 4 -36 3 -46 -4
-35 -9 12 -11 10 -11 -10 0 -14 -3 -35 -6 -48 -6 -21 -8 -21 -23 -8 -15 14
-17 13 -16 -12 0 -19 -5 -27 -17 -26 -9 1 -14 -4 -12 -11 3 -7 1 -16 -4 -19
-7 -4 -7 -19 0 -42 5 -20 11 -46 14 -57 2 -11 11 -28 21 -38 42 -42 45 -49 23
-49 -11 0 -20 5 -20 10 0 6 -3 9 -7 8 -14 -2 -48 15 -60 31 -11 14 -12 14 -13
-1 0 -20 -30 -25 -30 -5 0 6 -5 4 -11 -6 -11 -18 -9 -30 6 -72 7 -16 6 -18 -6
-7 -19 17 -30 15 -27 -5 2 -10 -3 -17 -9 -15 -18 3 -16 -43 3 -62 8 -9 13 -20
9 -26 -8 -13 18 -61 46 -84 16 -14 19 -21 10 -24 -7 -2 -25 8 -40 22 -29 28
-67 36 -58 12 3 -8 1 -17 -6 -19 -11 -4 -9 -12 32 -91 2 -5 -1 -6 -7 -2 -5 3
-12 0 -14 -6 -6 -17 13 -78 24 -78 4 0 8 -7 8 -16 0 -8 5 -12 10 -9 6 3 10 -1
10 -9 0 -9 7 -16 15 -16 8 0 15 -4 15 -9 0 -6 -9 -8 -20 -6 -15 3 -20 -2 -20
-16 0 -18 -2 -19 -29 -4 -16 8 -31 20 -34 27 -3 7 -6 3 -6 -10 -1 -16 -6 -22
-18 -20 -21 4 -31 -31 -12 -43 7 -4 10 -11 6 -15 -4 -4 -23 8 -42 26 -38 37
-41 36 -23 -7 6 -15 12 -34 14 -42 1 -8 10 -18 18 -23 20 -11 21 -25 1 -25 -8
0 -15 5 -15 10 0 6 -3 7 -6 4 -9 -9 17 -70 33 -80 7 -5 11 -13 7 -18 -4 -7 11
-8 40 -5 28 4 46 2 46 -5 0 -5 21 -10 48 -9 72 1 156 -10 163 -22 4 -6 33 -11
65 -11 70 0 101 -20 68 -44 -18 -15 -18 -15 4 -8 20 6 22 3 22 -38 l0 -44
-190 -7 c-105 -4 -201 -11 -212 -15 -12 -4 -41 -4 -66 2 -42 9 -63 4 -48 -10
7 -8 646 -15 646 -8 0 9 -58 34 -64 28 -6 -6 -10 26 -8 57 1 8 2 30 4 47 l2
33 77 -6 c62 -4 80 -2 93 11 8 9 23 15 33 13 12 -2 18 4 18 17 0 14 7 20 25
21 29 0 91 34 84 45 -3 5 9 3 26 -2 16 -6 32 -14 34 -17 4 -7 -19 -33 -29 -32
-38 1 -47 -1 -42 -14 4 -10 -5 -13 -36 -12 -29 1 -41 -3 -40 -11 2 -7 -7 -13
-19 -13 -12 0 -19 -3 -15 -6 7 -7 107 15 123 27 5 4 20 6 32 3 15 -5 28 2 46
22 24 28 24 29 5 36 -12 5 -17 13 -13 19 3 6 0 15 -7 20 -9 6 -10 9 -2 9 6 0
14 -4 18 -10 9 -14 37 0 31 16 -3 8 -2 14 2 14 4 0 9 12 10 27 2 26 1 26 -13
7 -17 -22 -19 -7 -5 31 15 40 20 76 9 70 -5 -4 -7 -10 -5 -14 3 -4 -4 -12 -15
-19 -16 -10 -19 -9 -19 4 0 8 -5 12 -10 9 -7 -4 -8 11 -5 44 4 44 3 50 -12 44
-10 -4 -14 -2 -10 4 9 14 -2 45 -13 38 -9 -6 -20 31 -12 40 14 13 9 38 -7 42
-12 3 -17 13 -16 26 1 12 3 22 4 22 3 0 7 21 15 83 4 29 9 59 12 67 10 25 -25
30 -43 6 -11 -16 -18 -19 -27 -12 -9 7 -17 7 -26 -2 -8 -6 -6 -2 4 10 10 13
22 20 26 18 8 -5 21 17 26 48 4 18 -6 22 -21 8 -6 -5 -18 -1 -30 12 -11 11
-14 16 -6 12 10 -6 12 -4 6 5 -12 20 -11 61 3 87 17 31 15 40 -4 17 -15 -18
-15 -18 -11 11 l5 30 -20 -28 c-11 -15 -24 -27 -29 -27 -5 0 9 23 31 51 22 28
40 59 40 70 0 27 -5 24 -30 -16 -12 -19 -26 -35 -31 -35 -6 0 -1 12 9 28 12
17 19 40 17 60 -3 41 -14 53 -22 24 -5 -22 -14 -27 -26 -15 -4 3 -2 12 3 19 6
6 13 23 15 35 4 20 -3 16 -35 -21 -37 -43 -56 -47 -25 -6 21 28 18 39 -6 25
-16 -8 -23 -8 -29 1 -6 9 -9 9 -13 -1 -4 -10 -6 -9 -6 4 -1 9 4 17 9 17 6 0
10 5 10 11 0 5 -4 8 -9 4 -5 -3 -13 -1 -16 5 -4 6 -3 10 2 9 25 -4 39 3 40 22
2 17 -1 19 -10 10 -16 -16 -27 -14 -27 7 0 14 2 15 10 2 7 -11 9 -7 7 17 -2
32 -19 46 -25 21 -2 -9 0 -8 8 2 8 10 10 11 8 2 -7 -25 -23 -7 -21 23 l2 30
-20 -25 c-20 -24 -20 -24 -14 -2 4 14 2 22 -5 22 -7 0 -10 6 -7 13 10 25 -34
59 -48 37z m-5 -124 c0 -3 -4 -8 -10 -11 -5 -3 -10 -1 -10 4 0 6 5 11 10 11 6
0 10 -2 10 -4z m0 -320 c0 -3 -4 -8 -10 -11 -5 -3 -10 -1 -10 4 0 6 5 11 10
11 6 0 10 -2 10 -4z m8 -117 c-18 -11 -23 7 -6 25 11 12 13 12 16 -1 2 -9 -2
-19 -10 -24z m-98 -19 c-20 -13 -33 -13 -25 0 3 6 14 10 23 10 15 0 15 -2 2
-10z m-291 -56 c3 -16 1 -17 -13 -5 -19 16 -21 34 -3 29 6 -3 14 -13 16 -24z
m657 -76 c10 -12 13 -18 6 -14 -7 4 -19 3 -26 -3 -10 -9 -15 -8 -20 5 -5 12
-2 15 10 10 12 -4 15 -2 10 9 -8 21 -2 19 20 -7z m46 0 c-7 -7 -12 -8 -12 -2
0 6 3 14 7 17 3 4 9 5 12 2 2 -3 -1 -11 -7 -17z m-417 -18 c3 -6 -1 -7 -9 -4
-18 7 -21 14 -7 14 6 0 13 -4 16 -10z m10 -30 c3 -5 1 -10 -4 -10 -6 0 -11 5
-11 10 0 6 2 10 4 10 3 0 8 -4 11 -10z m357 -44 c7 4 8 2 4 -4 -11 -18 -26
-14 -25 6 0 10 3 12 6 4 2 -6 10 -9 15 -6z m-492 -16 c0 -5 -4 -10 -10 -10 -5
0 -10 5 -10 10 0 6 5 10 10 10 6 0 10 -4 10 -10z m435 0 c-3 -5 -12 -10 -18
-10 -7 0 -6 4 3 10 19 12 23 12 15 0z m35 -21 c0 -6 -4 -7 -10 -4 -5 3 -10 11
-10 16 0 6 5 7 10 4 6 -3 10 -11 10 -16z m-630 -69 c0 -5 -4 -10 -9 -10 -6 0
-13 5 -16 10 -3 6 1 10 9 10 9 0 16 -4 16 -10z m97 -22 c-3 -8 -6 -5 -6 6 -1
11 2 17 5 13 3 -3 4 -12 1 -19z m576 3 c-4 -3 -11 -10 -15 -15 -5 -5 -8 0 -8
12 0 15 4 20 16 15 9 -3 12 -9 7 -12z m-43 -31 c0 -5 -8 -10 -17 -10 -15 0
-16 2 -3 10 19 12 20 12 20 0z m42 -12 c-9 -9 -15 -9 -24 0 -9 9 -7 12 12 12
19 0 21 -3 12 -12z m128 -178 c-6 -11 -15 -20 -20 -20 -14 0 -12 6 6 24 21 22
27 20 14 -4z m-670 -21 c0 -5 -4 -9 -10 -9 -5 0 -10 7 -10 16 0 8 5 12 10 9 6
-3 10 -10 10 -16z m435 -109 c19 -8 19 -9 -2 -9 -12 -1 -25 4 -28 9 -7 12 2
12 30 0z m-110 -18 c-3 -3 -11 0 -18 7 -9 10 -8 11 6 5 10 -3 15 -9 12 -12z
m-248 2 c-3 -3 -12 -4 -19 -1 -8 3 -5 6 6 6 11 1 17 -2 13 -5z m343 -14 c-8
-5 -19 -10 -25 -10 -5 0 -3 5 5 10 8 5 20 10 25 10 6 0 3 -5 -5 -10z"/>
<path d="M1793 1453 c9 -2 23 -2 30 0 6 3 -1 5 -18 5 -16 0 -22 -2 -12 -5z"/>
<path d="M1868 1443 c7 -3 16 -2 19 1 4 3 -2 6 -13 5 -11 0 -14 -3 -6 -6z"/>
<path d="M1910 1435 l-35 -12 59 -1 c32 -1 55 2 51 6 -3 4 -10 7 -13 7 -4 0
-11 3 -17 6 -5 4 -26 1 -45 -6z"/>
<path d="M2175 1320 c-45 -8 -38 -10 55 -15 36 -1 52 0 35 3 l-30 5 30 7 c28
7 27 8 -10 7 -22 0 -58 -3 -80 -7z"/>
<path d="M1448 1293 c7 -3 16 -2 19 1 4 3 -2 6 -13 5 -11 0 -14 -3 -6 -6z"/>
</g>
</svg>
